<svg width="1024" height="1024" viewBox="0 0 1024 1024" xmlns="http://www.w3.org/2000/svg">
  <defs>
    <linearGradient id="bgGradient" x1="0%" y1="0%" x2="100%" y2="100%">
      <stop offset="0%" style="stop-color:#667eea;stop-opacity:1" />
      <stop offset="100%" style="stop-color:#764ba2;stop-opacity:1" />
    </linearGradient>
    <linearGradient id="centerGradient" x1="0%" y1="0%" x2="100%" y2="100%">
      <stop offset="0%" style="stop-color:#f093fb;stop-opacity:1" />
      <stop offset="100%" style="stop-color:#f5576c;stop-opacity:1" />
    </linearGradient>
    <filter id="glow">
      <feGaussianBlur stdDeviation="4" result="coloredBlur"/>
      <feMerge> 
        <feMergeNode in="coloredBlur"/>
        <feMergeNode in="SourceGraphic"/> 
      </feMerge>
    </filter>
    <filter id="shadow">
      <feDropShadow dx="0" dy="4" stdDeviation="8" flood-color="#000000" flood-opacity="0.3"/>
    </filter>
  </defs>
  
  <!-- Background with rounded corners -->
  <rect width="1024" height="1024" rx="180" ry="180" fill="url(#bgGradient)" filter="url(#shadow)"/>
  
  <!-- Outer rings representing global scope -->
  <circle cx="512" cy="512" r="420" fill="none" stroke="#ffffff" stroke-width="6" opacity="0.2"/>
  <circle cx="512" cy="512" r="340" fill="none" stroke="#ffffff" stroke-width="8" opacity="0.3"/>
  <circle cx="512" cy="512" r="260" fill="none" stroke="#ffffff" stroke-width="10" opacity="0.4"/>
  
  <!-- Central hub -->
  <circle cx="512" cy="512" r="90" fill="url(#centerGradient)" filter="url(#glow)"/>
  
  <!-- Event nodes around the center -->
  <g transform="translate(512,512)">
    <!-- Node 1 - Top -->
    <g transform="rotate(0)">
      <circle cx="0" cy="-200" r="28" fill="#ffffff" opacity="0.9" filter="url(#shadow)"/>
      <circle cx="0" cy="-200" r="20" fill="#4facfe"/>
    </g>
    
    <!-- Node 2 - Top Right -->
    <g transform="rotate(60)">
      <circle cx="0" cy="-200" r="28" fill="#ffffff" opacity="0.9" filter="url(#shadow)"/>
      <circle cx="0" cy="-200" r="20" fill="#00f2fe"/>
    </g>
    
    <!-- Node 3 - Bottom Right -->
    <g transform="rotate(120)">
      <circle cx="0" cy="-200" r="28" fill="#ffffff" opacity="0.9" filter="url(#shadow)"/>
      <circle cx="0" cy="-200" r="20" fill="#43e97b"/>
    </g>
    
    <!-- Node 4 - Bottom -->
    <g transform="rotate(180)">
      <circle cx="0" cy="-200" r="28" fill="#ffffff" opacity="0.9" filter="url(#shadow)"/>
      <circle cx="0" cy="-200" r="20" fill="#38f9d7"/>
    </g>
    
    <!-- Node 5 - Bottom Left -->
    <g transform="rotate(240)">
      <circle cx="0" cy="-200" r="28" fill="#ffffff" opacity="0.9" filter="url(#shadow)"/>
      <circle cx="0" cy="-200" r="20" fill="#ffecd2"/>
    </g>
    
    <!-- Node 6 - Top Left -->
    <g transform="rotate(300)">
      <circle cx="0" cy="-200" r="28" fill="#ffffff" opacity="0.9" filter="url(#shadow)"/>
      <circle cx="0" cy="-200" r="20" fill="#fcb69f"/>
    </g>
  </g>
  
  <!-- Connection lines from center to nodes -->
  <g stroke="#ffffff" stroke-width="4" opacity="0.7">
    <line x1="512" y1="422" x2="512" y2="340"/>
    <line x1="512" y1="602" x2="512" y2="684"/>
    <line x1="422" y1="512" x2="340" y2="512"/>
    <line x1="602" y1="512" x2="684" y2="512"/>
    <line x1="439" y1="439" x2="369" y2="369"/>
    <line x1="585" y1="585" x2="655" y2="655"/>
    <line x1="585" y1="439" x2="655" y2="369"/>
    <line x1="439" y1="585" x2="369" y2="655"/>
  </g>
  
  <!-- Additional decorative rings -->
  <circle cx="512" cy="512" r="140" fill="none" stroke="#ffffff" stroke-width="3" opacity="0.5"/>
  <circle cx="512" cy="512" r="180" fill="none" stroke="#ffffff" stroke-width="2" opacity="0.4"/>
  
  <!-- Central icon - stylized 'E' for Event -->
  <g transform="translate(512,512)" fill="#ffffff" filter="url(#shadow)">
    <rect x="-25" y="-35" width="10" height="70" rx="2"/>
    <rect x="-15" y="-35" width="35" height="10" rx="2"/>
    <rect x="-15" y="-5" width="28" height="10" rx="2"/>
    <rect x="-15" y="25" width="35" height="10" rx="2"/>
  </g>
</svg>